<mxfile host="app.diagrams.net" modified="2024-02-08T08:57:39.947Z" agent="Mozilla/5.0 (Windows NT 10.0; Win64; x64) AppleWebKit/537.36 (KHTML, like Gecko) Chrome/121.0.0.0 Safari/537.36 Edg/121.0.0.0" etag="DnZZOrqVXI1mmwf1-xQ8" version="23.1.2" type="github">
  <diagram name="Página-1" id="DgyqjarxZwNVzye8CLjz">
    <mxGraphModel dx="2084" dy="2323" grid="1" gridSize="10" guides="1" tooltips="1" connect="1" arrows="1" fold="1" page="1" pageScale="1" pageWidth="827" pageHeight="1169" math="0" shadow="0">
      <root>
        <mxCell id="0" />
        <mxCell id="1" parent="0" />
        <mxCell id="WXpK4O57Sc2LEBE2KfK7-1" value="" style="swimlane;childLayout=stackLayout;resizeParent=1;resizeParentMax=0;horizontal=1;startSize=20;horizontalStack=0;html=1;" vertex="1" parent="1">
          <mxGeometry x="20" y="130" width="480" height="380" as="geometry">
            <mxRectangle x="50" y="130" width="70" height="30" as="alternateBounds" />
          </mxGeometry>
        </mxCell>
        <mxCell id="WXpK4O57Sc2LEBE2KfK7-2" value="1ª INSTANCIA" style="swimlane;startSize=20;horizontal=0;html=1;fillColor=#d5e8d4;strokeColor=#82b366;gradientColor=none;swimlaneFillColor=default;" vertex="1" parent="WXpK4O57Sc2LEBE2KfK7-1">
          <mxGeometry y="20" width="480" height="120" as="geometry" />
        </mxCell>
        <mxCell id="WXpK4O57Sc2LEBE2KfK7-3" style="edgeStyle=orthogonalEdgeStyle;rounded=0;orthogonalLoop=1;jettySize=auto;html=1;" edge="1" parent="WXpK4O57Sc2LEBE2KfK7-2" source="WXpK4O57Sc2LEBE2KfK7-4" target="WXpK4O57Sc2LEBE2KfK7-5">
          <mxGeometry relative="1" as="geometry" />
        </mxCell>
        <mxCell id="WXpK4O57Sc2LEBE2KfK7-4" value="CONTENCIOSO" style="rounded=0;whiteSpace=wrap;html=1;" vertex="1" parent="WXpK4O57Sc2LEBE2KfK7-2">
          <mxGeometry x="50" y="30" width="120" height="60" as="geometry" />
        </mxCell>
        <mxCell id="WXpK4O57Sc2LEBE2KfK7-5" value="INCIDENTE" style="rounded=0;whiteSpace=wrap;html=1;" vertex="1" parent="WXpK4O57Sc2LEBE2KfK7-2">
          <mxGeometry x="290" y="30" width="120" height="60" as="geometry" />
        </mxCell>
        <mxCell id="WXpK4O57Sc2LEBE2KfK7-6" value="2ª INSTANCIA" style="swimlane;startSize=20;horizontal=0;html=1;fillColor=#fff2cc;strokeColor=#d6b656;swimlaneFillColor=default;" vertex="1" parent="WXpK4O57Sc2LEBE2KfK7-1">
          <mxGeometry y="140" width="480" height="120" as="geometry" />
        </mxCell>
        <mxCell id="WXpK4O57Sc2LEBE2KfK7-7" value="RECURSO" style="rounded=0;whiteSpace=wrap;html=1;" vertex="1" parent="WXpK4O57Sc2LEBE2KfK7-6">
          <mxGeometry x="290" y="30" width="120" height="60" as="geometry" />
        </mxCell>
        <mxCell id="WXpK4O57Sc2LEBE2KfK7-8" value="3ª INSTANCIA" style="swimlane;startSize=20;horizontal=0;html=1;fillColor=#f8cecc;strokeColor=#b85450;swimlaneFillColor=default;" vertex="1" parent="WXpK4O57Sc2LEBE2KfK7-1">
          <mxGeometry y="260" width="480" height="120" as="geometry" />
        </mxCell>
        <mxCell id="WXpK4O57Sc2LEBE2KfK7-9" value="RECURSO" style="rounded=0;whiteSpace=wrap;html=1;" vertex="1" parent="WXpK4O57Sc2LEBE2KfK7-8">
          <mxGeometry x="290" y="30" width="120" height="60" as="geometry" />
        </mxCell>
        <mxCell id="WXpK4O57Sc2LEBE2KfK7-10" style="edgeStyle=orthogonalEdgeStyle;rounded=0;orthogonalLoop=1;jettySize=auto;html=1;entryX=0.5;entryY=0;entryDx=0;entryDy=0;" edge="1" parent="WXpK4O57Sc2LEBE2KfK7-1" source="WXpK4O57Sc2LEBE2KfK7-5" target="WXpK4O57Sc2LEBE2KfK7-7">
          <mxGeometry relative="1" as="geometry" />
        </mxCell>
        <mxCell id="WXpK4O57Sc2LEBE2KfK7-11" style="edgeStyle=orthogonalEdgeStyle;rounded=0;orthogonalLoop=1;jettySize=auto;html=1;entryX=0.5;entryY=0;entryDx=0;entryDy=0;" edge="1" parent="WXpK4O57Sc2LEBE2KfK7-1" source="WXpK4O57Sc2LEBE2KfK7-7" target="WXpK4O57Sc2LEBE2KfK7-9">
          <mxGeometry relative="1" as="geometry" />
        </mxCell>
        <mxCell id="WXpK4O57Sc2LEBE2KfK7-12" value="&lt;p style=&quot;text-align: left;&quot;&gt;&lt;font style=&quot;font-size: 10px;&quot;&gt;En la primera instancia se abre un contencioso. Durante ese contencioso se abre un Incidente/Medida Cautelar sobre él. Este incidente se recurre.&lt;/font&gt;&lt;/p&gt;&lt;p style=&quot;text-align: left;&quot;&gt;&lt;font style=&quot;font-size: 10px;&quot;&gt;¿Se considera que este recurso es subir de instancia o seguiríamos en la misma instancia? El expediente contencioso sigue en la misma instancia. &lt;font color=&quot;#ff0000&quot;&gt;El incidente será resuelto por el órgano jurisdiccional superior.&lt;/font&gt;&lt;/font&gt;&lt;/p&gt;&lt;p style=&quot;text-align: left;&quot;&gt;&lt;span style=&quot;color: rgb(45, 155, 240);&quot;&gt;&lt;font style=&quot;font-size: 10px;&quot;&gt;¿El incidente se resuelve en órgano jurisdiccional superior o el recurso que se creó sobre el incidente?. Igual como está planteada la pregunta no queda clara.&lt;/font&gt;&lt;/span&gt;&lt;/p&gt;&lt;p style=&quot;text-align: left;&quot;&gt;&lt;font style=&quot;font-size: 10px;&quot;&gt;¿Se puede recurrir ese recurso del Incidente? &lt;span style=&quot;color: rgb(242, 71, 38);&quot;&gt;Sí.&lt;/span&gt;&lt;/font&gt;&lt;/p&gt;" style="rounded=0;whiteSpace=wrap;html=1;" vertex="1" parent="1">
          <mxGeometry x="20" y="-20" width="480" height="140" as="geometry" />
        </mxCell>
        <mxCell id="WXpK4O57Sc2LEBE2KfK7-13" value="" style="swimlane;childLayout=stackLayout;resizeParent=1;resizeParentMax=0;horizontal=1;startSize=20;horizontalStack=0;html=1;" vertex="1" parent="1">
          <mxGeometry x="518" y="130" width="530" height="380" as="geometry">
            <mxRectangle x="50" y="130" width="70" height="30" as="alternateBounds" />
          </mxGeometry>
        </mxCell>
        <mxCell id="WXpK4O57Sc2LEBE2KfK7-14" value="1ª INSTANCIA" style="swimlane;startSize=20;horizontal=0;html=1;fillColor=#d5e8d4;strokeColor=#82b366;swimlaneFillColor=default;" vertex="1" parent="WXpK4O57Sc2LEBE2KfK7-13">
          <mxGeometry y="20" width="530" height="120" as="geometry" />
        </mxCell>
        <mxCell id="WXpK4O57Sc2LEBE2KfK7-15" value="CONTENCIOSO" style="rounded=0;whiteSpace=wrap;html=1;" vertex="1" parent="WXpK4O57Sc2LEBE2KfK7-14">
          <mxGeometry x="50" y="30" width="120" height="60" as="geometry" />
        </mxCell>
        <mxCell id="WXpK4O57Sc2LEBE2KfK7-16" value="2ª INSTANCIA" style="swimlane;startSize=20;horizontal=0;html=1;fillColor=#fff2cc;strokeColor=#d6b656;swimlaneFillColor=default;" vertex="1" parent="WXpK4O57Sc2LEBE2KfK7-13">
          <mxGeometry y="140" width="530" height="120" as="geometry" />
        </mxCell>
        <mxCell id="WXpK4O57Sc2LEBE2KfK7-17" style="edgeStyle=orthogonalEdgeStyle;rounded=0;orthogonalLoop=1;jettySize=auto;html=1;entryX=0;entryY=0.5;entryDx=0;entryDy=0;" edge="1" parent="WXpK4O57Sc2LEBE2KfK7-16" source="WXpK4O57Sc2LEBE2KfK7-18" target="WXpK4O57Sc2LEBE2KfK7-19">
          <mxGeometry relative="1" as="geometry" />
        </mxCell>
        <mxCell id="WXpK4O57Sc2LEBE2KfK7-18" value="RECURSO" style="rounded=0;whiteSpace=wrap;html=1;" vertex="1" parent="WXpK4O57Sc2LEBE2KfK7-16">
          <mxGeometry x="50" y="30" width="120" height="60" as="geometry" />
        </mxCell>
        <mxCell id="WXpK4O57Sc2LEBE2KfK7-19" value="INCIDENTE" style="rounded=0;whiteSpace=wrap;html=1;" vertex="1" parent="WXpK4O57Sc2LEBE2KfK7-16">
          <mxGeometry x="272" y="30" width="120" height="60" as="geometry" />
        </mxCell>
        <mxCell id="WXpK4O57Sc2LEBE2KfK7-20" value="3ª INSTANCIA" style="swimlane;startSize=20;horizontal=0;html=1;fillColor=#f8cecc;strokeColor=#b85450;swimlaneFillColor=default;" vertex="1" parent="WXpK4O57Sc2LEBE2KfK7-13">
          <mxGeometry y="260" width="530" height="120" as="geometry" />
        </mxCell>
        <mxCell id="WXpK4O57Sc2LEBE2KfK7-21" value="RECURSO" style="rounded=0;whiteSpace=wrap;html=1;" vertex="1" parent="WXpK4O57Sc2LEBE2KfK7-20">
          <mxGeometry x="272" y="30" width="120" height="60" as="geometry" />
        </mxCell>
        <mxCell id="WXpK4O57Sc2LEBE2KfK7-22" style="edgeStyle=orthogonalEdgeStyle;rounded=0;orthogonalLoop=1;jettySize=auto;html=1;" edge="1" parent="WXpK4O57Sc2LEBE2KfK7-13" source="WXpK4O57Sc2LEBE2KfK7-15" target="WXpK4O57Sc2LEBE2KfK7-18">
          <mxGeometry relative="1" as="geometry" />
        </mxCell>
        <mxCell id="WXpK4O57Sc2LEBE2KfK7-23" style="edgeStyle=orthogonalEdgeStyle;rounded=0;orthogonalLoop=1;jettySize=auto;html=1;entryX=0.5;entryY=0;entryDx=0;entryDy=0;" edge="1" parent="WXpK4O57Sc2LEBE2KfK7-13" source="WXpK4O57Sc2LEBE2KfK7-19" target="WXpK4O57Sc2LEBE2KfK7-21">
          <mxGeometry relative="1" as="geometry" />
        </mxCell>
        <mxCell id="WXpK4O57Sc2LEBE2KfK7-24" value="&lt;p&gt;&lt;font style=&quot;font-size: 10px;&quot;&gt;Se resuelve el Contencioso y se recurre en segunda instancia. Sobre ese recurso se abre un Incidente/Medida Cautelar.&lt;/font&gt;&lt;/p&gt;&lt;p&gt;&lt;/p&gt;&lt;p&gt;&lt;font style=&quot;font-size: 10px;&quot;&gt;Este incidente se recurre. ¿Se puede recurrir ese recurso del Incidente? &lt;font color=&quot;#ff0000&quot;&gt;Sí&lt;/font&gt;.&lt;/font&gt;&lt;/p&gt;&lt;p&gt;&lt;span style=&quot;color: rgb(45, 155, 240);&quot;&gt;&lt;font style=&quot;font-size: 10px;&quot;&gt; Según esta respuesta, entiendo que el incidente no sube de instancia.&lt;/font&gt;&lt;/span&gt;&lt;/p&gt;" style="rounded=0;whiteSpace=wrap;html=1;align=left;" vertex="1" parent="1">
          <mxGeometry x="518" y="-20" width="529" height="140" as="geometry" />
        </mxCell>
        <mxCell id="WXpK4O57Sc2LEBE2KfK7-25" value="RECURSO???" style="rounded=0;whiteSpace=wrap;html=1;fillColor=#f8cecc;strokeColor=#b85450;" vertex="1" parent="1">
          <mxGeometry x="790" y="540" width="120" height="60" as="geometry" />
        </mxCell>
        <mxCell id="WXpK4O57Sc2LEBE2KfK7-26" style="edgeStyle=orthogonalEdgeStyle;rounded=0;orthogonalLoop=1;jettySize=auto;html=1;entryX=0.5;entryY=0;entryDx=0;entryDy=0;" edge="1" parent="1" source="WXpK4O57Sc2LEBE2KfK7-21" target="WXpK4O57Sc2LEBE2KfK7-25">
          <mxGeometry relative="1" as="geometry" />
        </mxCell>
        <mxCell id="WXpK4O57Sc2LEBE2KfK7-27" value="" style="swimlane;childLayout=stackLayout;resizeParent=1;resizeParentMax=0;horizontal=1;startSize=20;horizontalStack=0;html=1;" vertex="1" parent="1">
          <mxGeometry x="1070" y="130" width="480" height="380" as="geometry">
            <mxRectangle x="50" y="130" width="70" height="30" as="alternateBounds" />
          </mxGeometry>
        </mxCell>
        <mxCell id="WXpK4O57Sc2LEBE2KfK7-28" value="1ª INSTANCIA" style="swimlane;startSize=20;horizontal=0;html=1;fillColor=#d5e8d4;strokeColor=#82b366;swimlaneFillColor=default;" vertex="1" parent="WXpK4O57Sc2LEBE2KfK7-27">
          <mxGeometry y="20" width="480" height="120" as="geometry" />
        </mxCell>
        <mxCell id="WXpK4O57Sc2LEBE2KfK7-29" value="CONTENCIOSO" style="rounded=0;whiteSpace=wrap;html=1;" vertex="1" parent="WXpK4O57Sc2LEBE2KfK7-28">
          <mxGeometry x="50" y="30" width="120" height="60" as="geometry" />
        </mxCell>
        <mxCell id="WXpK4O57Sc2LEBE2KfK7-30" value="2ª INSTANCIA" style="swimlane;startSize=20;horizontal=0;html=1;fillColor=#fff2cc;strokeColor=#d6b656;swimlaneFillColor=default;" vertex="1" parent="WXpK4O57Sc2LEBE2KfK7-27">
          <mxGeometry y="140" width="480" height="120" as="geometry" />
        </mxCell>
        <mxCell id="WXpK4O57Sc2LEBE2KfK7-31" value="RECURSO" style="rounded=0;whiteSpace=wrap;html=1;" vertex="1" parent="WXpK4O57Sc2LEBE2KfK7-30">
          <mxGeometry x="50" y="40" width="120" height="60" as="geometry" />
        </mxCell>
        <mxCell id="WXpK4O57Sc2LEBE2KfK7-32" value="3ª INSTANCIA" style="swimlane;startSize=20;horizontal=0;html=1;fillColor=#f8cecc;strokeColor=#b85450;swimlaneFillColor=default;" vertex="1" parent="WXpK4O57Sc2LEBE2KfK7-27">
          <mxGeometry y="260" width="480" height="120" as="geometry" />
        </mxCell>
        <mxCell id="WXpK4O57Sc2LEBE2KfK7-33" style="edgeStyle=orthogonalEdgeStyle;rounded=0;orthogonalLoop=1;jettySize=auto;html=1;" edge="1" parent="WXpK4O57Sc2LEBE2KfK7-32" source="WXpK4O57Sc2LEBE2KfK7-34" target="WXpK4O57Sc2LEBE2KfK7-35">
          <mxGeometry relative="1" as="geometry" />
        </mxCell>
        <mxCell id="WXpK4O57Sc2LEBE2KfK7-34" value="RECURSO" style="rounded=0;whiteSpace=wrap;html=1;" vertex="1" parent="WXpK4O57Sc2LEBE2KfK7-32">
          <mxGeometry x="50" y="30" width="120" height="60" as="geometry" />
        </mxCell>
        <mxCell id="WXpK4O57Sc2LEBE2KfK7-35" value="INCIDENTE" style="rounded=0;whiteSpace=wrap;html=1;" vertex="1" parent="WXpK4O57Sc2LEBE2KfK7-32">
          <mxGeometry x="270" y="30" width="120" height="60" as="geometry" />
        </mxCell>
        <mxCell id="WXpK4O57Sc2LEBE2KfK7-36" style="edgeStyle=orthogonalEdgeStyle;rounded=0;orthogonalLoop=1;jettySize=auto;html=1;entryX=0.5;entryY=0;entryDx=0;entryDy=0;" edge="1" parent="WXpK4O57Sc2LEBE2KfK7-27" source="WXpK4O57Sc2LEBE2KfK7-29" target="WXpK4O57Sc2LEBE2KfK7-31">
          <mxGeometry relative="1" as="geometry">
            <mxPoint x="350" y="109.99999999999977" as="sourcePoint" />
          </mxGeometry>
        </mxCell>
        <mxCell id="WXpK4O57Sc2LEBE2KfK7-37" style="edgeStyle=orthogonalEdgeStyle;rounded=0;orthogonalLoop=1;jettySize=auto;html=1;entryX=0.5;entryY=0;entryDx=0;entryDy=0;" edge="1" parent="WXpK4O57Sc2LEBE2KfK7-27" source="WXpK4O57Sc2LEBE2KfK7-31" target="WXpK4O57Sc2LEBE2KfK7-34">
          <mxGeometry relative="1" as="geometry" />
        </mxCell>
        <mxCell id="WXpK4O57Sc2LEBE2KfK7-38" value="&lt;p&gt;&lt;font style=&quot;font-size: 10px;&quot;&gt;se revuelve el recurso y se recurre en tercera instancia. Sobre ese recurso se abre un Incidente/Medida Cautelar.&lt;/font&gt;&lt;/p&gt;&lt;p&gt;&lt;/p&gt;&lt;p&gt;&lt;font style=&quot;font-size: 10px;&quot;&gt;Este incidente se recurre. ¿Se puede recurrir ese recurso del Incidente? &lt;font color=&quot;#ff0000&quot;&gt;No.&lt;/font&gt;&lt;/font&gt;&lt;/p&gt;&lt;p&gt;&lt;span style=&quot;color: rgb(45, 155, 240);&quot;&gt;&lt;font style=&quot;font-size: 10px;&quot;&gt;Si a partir del recurso en tercera instancia se crea un IMC, según lo dicho en la pregunta primera, el recurso de éste se resolverá por el órgano jurisdiccional superior. Se me acaban las instancias&lt;/font&gt;&lt;/span&gt;&lt;/p&gt;" style="rounded=0;whiteSpace=wrap;html=1;align=left;" vertex="1" parent="1">
          <mxGeometry x="1070" y="-20" width="480" height="140" as="geometry" />
        </mxCell>
        <mxCell id="WXpK4O57Sc2LEBE2KfK7-39" value="RECURSO???" style="rounded=0;whiteSpace=wrap;html=1;fillColor=#f8cecc;strokeColor=#b85450;" vertex="1" parent="1">
          <mxGeometry x="1340" y="540" width="120" height="60" as="geometry" />
        </mxCell>
        <mxCell id="WXpK4O57Sc2LEBE2KfK7-40" style="edgeStyle=orthogonalEdgeStyle;rounded=0;orthogonalLoop=1;jettySize=auto;html=1;entryX=0.5;entryY=0;entryDx=0;entryDy=0;" edge="1" parent="1" source="WXpK4O57Sc2LEBE2KfK7-35" target="WXpK4O57Sc2LEBE2KfK7-39">
          <mxGeometry relative="1" as="geometry" />
        </mxCell>
        <mxCell id="WXpK4O57Sc2LEBE2KfK7-41" value="" style="swimlane;childLayout=stackLayout;resizeParent=1;resizeParentMax=0;horizontal=1;startSize=20;horizontalStack=0;html=1;" vertex="1" parent="1">
          <mxGeometry x="20" y="680" width="880" height="380" as="geometry">
            <mxRectangle x="50" y="130" width="70" height="30" as="alternateBounds" />
          </mxGeometry>
        </mxCell>
        <mxCell id="WXpK4O57Sc2LEBE2KfK7-42" value="1ª INSTANCIA" style="swimlane;startSize=20;horizontal=0;html=1;fillColor=#d5e8d4;strokeColor=#82b366;swimlaneFillColor=default;" vertex="1" parent="WXpK4O57Sc2LEBE2KfK7-41">
          <mxGeometry y="20" width="880" height="120" as="geometry" />
        </mxCell>
        <mxCell id="WXpK4O57Sc2LEBE2KfK7-43" style="edgeStyle=orthogonalEdgeStyle;rounded=0;orthogonalLoop=1;jettySize=auto;html=1;" edge="1" parent="WXpK4O57Sc2LEBE2KfK7-42" source="WXpK4O57Sc2LEBE2KfK7-44" target="WXpK4O57Sc2LEBE2KfK7-45">
          <mxGeometry relative="1" as="geometry" />
        </mxCell>
        <mxCell id="WXpK4O57Sc2LEBE2KfK7-44" value="CONTENCIOSO" style="rounded=0;whiteSpace=wrap;html=1;" vertex="1" parent="WXpK4O57Sc2LEBE2KfK7-42">
          <mxGeometry x="30" y="30" width="120" height="60" as="geometry" />
        </mxCell>
        <mxCell id="WXpK4O57Sc2LEBE2KfK7-45" value="INCIDENTE" style="rounded=0;whiteSpace=wrap;html=1;" vertex="1" parent="WXpK4O57Sc2LEBE2KfK7-42">
          <mxGeometry x="558" y="30" width="120" height="60" as="geometry" />
        </mxCell>
        <mxCell id="WXpK4O57Sc2LEBE2KfK7-46" value="2ª INSTANCIA" style="swimlane;startSize=20;horizontal=0;html=1;fillColor=#fff2cc;strokeColor=#d6b656;swimlaneFillColor=default;" vertex="1" parent="WXpK4O57Sc2LEBE2KfK7-41">
          <mxGeometry y="140" width="880" height="120" as="geometry" />
        </mxCell>
        <mxCell id="WXpK4O57Sc2LEBE2KfK7-47" style="edgeStyle=orthogonalEdgeStyle;rounded=0;orthogonalLoop=1;jettySize=auto;html=1;" edge="1" parent="WXpK4O57Sc2LEBE2KfK7-46" source="WXpK4O57Sc2LEBE2KfK7-48" target="WXpK4O57Sc2LEBE2KfK7-52">
          <mxGeometry relative="1" as="geometry" />
        </mxCell>
        <mxCell id="WXpK4O57Sc2LEBE2KfK7-48" value="RECURSO" style="rounded=0;whiteSpace=wrap;html=1;" vertex="1" parent="WXpK4O57Sc2LEBE2KfK7-46">
          <mxGeometry x="558" y="30" width="120" height="60" as="geometry" />
        </mxCell>
        <mxCell id="WXpK4O57Sc2LEBE2KfK7-49" style="edgeStyle=orthogonalEdgeStyle;rounded=0;orthogonalLoop=1;jettySize=auto;html=1;entryX=0;entryY=0.5;entryDx=0;entryDy=0;" edge="1" parent="WXpK4O57Sc2LEBE2KfK7-46" source="WXpK4O57Sc2LEBE2KfK7-50" target="WXpK4O57Sc2LEBE2KfK7-51">
          <mxGeometry relative="1" as="geometry" />
        </mxCell>
        <mxCell id="WXpK4O57Sc2LEBE2KfK7-50" value="RECURSO" style="rounded=0;whiteSpace=wrap;html=1;" vertex="1" parent="WXpK4O57Sc2LEBE2KfK7-46">
          <mxGeometry x="30" y="30" width="120" height="60" as="geometry" />
        </mxCell>
        <mxCell id="WXpK4O57Sc2LEBE2KfK7-51" value="INCIDENTE" style="rounded=0;whiteSpace=wrap;html=1;" vertex="1" parent="WXpK4O57Sc2LEBE2KfK7-46">
          <mxGeometry x="360" y="30" width="120" height="60" as="geometry" />
        </mxCell>
        <mxCell id="WXpK4O57Sc2LEBE2KfK7-52" value="INCIDENTE" style="rounded=0;whiteSpace=wrap;html=1;" vertex="1" parent="WXpK4O57Sc2LEBE2KfK7-46">
          <mxGeometry x="720" y="30" width="120" height="60" as="geometry" />
        </mxCell>
        <mxCell id="WXpK4O57Sc2LEBE2KfK7-53" value="3ª INSTANCIA" style="swimlane;startSize=20;horizontal=0;html=1;fillColor=#f8cecc;strokeColor=#b85450;swimlaneFillColor=default;" vertex="1" parent="WXpK4O57Sc2LEBE2KfK7-41">
          <mxGeometry y="260" width="880" height="120" as="geometry" />
        </mxCell>
        <mxCell id="WXpK4O57Sc2LEBE2KfK7-54" value="RECURSO" style="rounded=0;whiteSpace=wrap;html=1;" vertex="1" parent="WXpK4O57Sc2LEBE2KfK7-53">
          <mxGeometry x="558" y="30" width="120" height="60" as="geometry" />
        </mxCell>
        <mxCell id="WXpK4O57Sc2LEBE2KfK7-55" style="edgeStyle=orthogonalEdgeStyle;rounded=0;orthogonalLoop=1;jettySize=auto;html=1;" edge="1" parent="WXpK4O57Sc2LEBE2KfK7-53" source="WXpK4O57Sc2LEBE2KfK7-56" target="WXpK4O57Sc2LEBE2KfK7-60">
          <mxGeometry relative="1" as="geometry" />
        </mxCell>
        <mxCell id="WXpK4O57Sc2LEBE2KfK7-56" value="RECURSO" style="rounded=0;whiteSpace=wrap;html=1;" vertex="1" parent="WXpK4O57Sc2LEBE2KfK7-53">
          <mxGeometry x="30" y="30" width="120" height="60" as="geometry" />
        </mxCell>
        <mxCell id="WXpK4O57Sc2LEBE2KfK7-57" style="edgeStyle=orthogonalEdgeStyle;rounded=0;orthogonalLoop=1;jettySize=auto;html=1;entryX=1;entryY=0.5;entryDx=0;entryDy=0;" edge="1" parent="WXpK4O57Sc2LEBE2KfK7-53" source="WXpK4O57Sc2LEBE2KfK7-58" target="WXpK4O57Sc2LEBE2KfK7-60">
          <mxGeometry relative="1" as="geometry" />
        </mxCell>
        <mxCell id="WXpK4O57Sc2LEBE2KfK7-58" value="RECURSO" style="rounded=0;whiteSpace=wrap;html=1;" vertex="1" parent="WXpK4O57Sc2LEBE2KfK7-53">
          <mxGeometry x="360" y="30" width="120" height="60" as="geometry" />
        </mxCell>
        <mxCell id="WXpK4O57Sc2LEBE2KfK7-59" value="RECURSO" style="rounded=0;whiteSpace=wrap;html=1;" vertex="1" parent="WXpK4O57Sc2LEBE2KfK7-53">
          <mxGeometry x="720" y="30" width="120" height="60" as="geometry" />
        </mxCell>
        <mxCell id="WXpK4O57Sc2LEBE2KfK7-60" value="INCIDENTE" style="rounded=0;whiteSpace=wrap;html=1;" vertex="1" parent="WXpK4O57Sc2LEBE2KfK7-53">
          <mxGeometry x="190" y="30" width="120" height="60" as="geometry" />
        </mxCell>
        <mxCell id="WXpK4O57Sc2LEBE2KfK7-61" style="edgeStyle=orthogonalEdgeStyle;rounded=0;orthogonalLoop=1;jettySize=auto;html=1;entryX=0.5;entryY=0;entryDx=0;entryDy=0;" edge="1" parent="WXpK4O57Sc2LEBE2KfK7-41" source="WXpK4O57Sc2LEBE2KfK7-45" target="WXpK4O57Sc2LEBE2KfK7-48">
          <mxGeometry relative="1" as="geometry" />
        </mxCell>
        <mxCell id="WXpK4O57Sc2LEBE2KfK7-62" style="edgeStyle=orthogonalEdgeStyle;rounded=0;orthogonalLoop=1;jettySize=auto;html=1;entryX=0.5;entryY=0;entryDx=0;entryDy=0;" edge="1" parent="WXpK4O57Sc2LEBE2KfK7-41" source="WXpK4O57Sc2LEBE2KfK7-48" target="WXpK4O57Sc2LEBE2KfK7-54">
          <mxGeometry relative="1" as="geometry" />
        </mxCell>
        <mxCell id="WXpK4O57Sc2LEBE2KfK7-63" style="edgeStyle=orthogonalEdgeStyle;rounded=0;orthogonalLoop=1;jettySize=auto;html=1;entryX=0.5;entryY=0;entryDx=0;entryDy=0;" edge="1" parent="WXpK4O57Sc2LEBE2KfK7-41" source="WXpK4O57Sc2LEBE2KfK7-44" target="WXpK4O57Sc2LEBE2KfK7-50">
          <mxGeometry relative="1" as="geometry" />
        </mxCell>
        <mxCell id="WXpK4O57Sc2LEBE2KfK7-64" style="edgeStyle=orthogonalEdgeStyle;rounded=0;orthogonalLoop=1;jettySize=auto;html=1;entryX=0.5;entryY=0;entryDx=0;entryDy=0;" edge="1" parent="WXpK4O57Sc2LEBE2KfK7-41" source="WXpK4O57Sc2LEBE2KfK7-50" target="WXpK4O57Sc2LEBE2KfK7-56">
          <mxGeometry relative="1" as="geometry" />
        </mxCell>
        <mxCell id="WXpK4O57Sc2LEBE2KfK7-65" style="edgeStyle=orthogonalEdgeStyle;rounded=0;orthogonalLoop=1;jettySize=auto;html=1;" edge="1" parent="WXpK4O57Sc2LEBE2KfK7-41" source="WXpK4O57Sc2LEBE2KfK7-51" target="WXpK4O57Sc2LEBE2KfK7-58">
          <mxGeometry relative="1" as="geometry" />
        </mxCell>
        <mxCell id="WXpK4O57Sc2LEBE2KfK7-66" style="edgeStyle=orthogonalEdgeStyle;rounded=0;orthogonalLoop=1;jettySize=auto;html=1;entryX=0.5;entryY=0;entryDx=0;entryDy=0;" edge="1" parent="WXpK4O57Sc2LEBE2KfK7-41" source="WXpK4O57Sc2LEBE2KfK7-52" target="WXpK4O57Sc2LEBE2KfK7-59">
          <mxGeometry relative="1" as="geometry" />
        </mxCell>
        <mxCell id="WXpK4O57Sc2LEBE2KfK7-67" value="" style="swimlane;childLayout=stackLayout;resizeParent=1;resizeParentMax=0;horizontal=1;startSize=20;horizontalStack=0;html=1;" vertex="1" parent="1">
          <mxGeometry x="30" y="1130" width="680" height="380" as="geometry">
            <mxRectangle x="50" y="130" width="70" height="30" as="alternateBounds" />
          </mxGeometry>
        </mxCell>
        <mxCell id="WXpK4O57Sc2LEBE2KfK7-68" value="1ª INSTANCIA" style="swimlane;startSize=20;horizontal=0;html=1;swimlaneFillColor=default;fillColor=#d5e8d4;strokeColor=#82b366;" vertex="1" parent="WXpK4O57Sc2LEBE2KfK7-67">
          <mxGeometry y="20" width="680" height="120" as="geometry" />
        </mxCell>
        <mxCell id="WXpK4O57Sc2LEBE2KfK7-69" style="edgeStyle=orthogonalEdgeStyle;rounded=0;orthogonalLoop=1;jettySize=auto;html=1;" edge="1" parent="WXpK4O57Sc2LEBE2KfK7-68" source="WXpK4O57Sc2LEBE2KfK7-71" target="WXpK4O57Sc2LEBE2KfK7-72">
          <mxGeometry relative="1" as="geometry" />
        </mxCell>
        <mxCell id="WXpK4O57Sc2LEBE2KfK7-70" style="edgeStyle=orthogonalEdgeStyle;rounded=0;orthogonalLoop=1;jettySize=auto;html=1;entryX=0;entryY=0.5;entryDx=0;entryDy=0;" edge="1" parent="WXpK4O57Sc2LEBE2KfK7-68" source="WXpK4O57Sc2LEBE2KfK7-71" target="WXpK4O57Sc2LEBE2KfK7-73">
          <mxGeometry relative="1" as="geometry" />
        </mxCell>
        <mxCell id="WXpK4O57Sc2LEBE2KfK7-71" value="CONTENCIOSO" style="rounded=0;whiteSpace=wrap;html=1;fillColor=#d5e8d4;strokeColor=#82b366;" vertex="1" parent="WXpK4O57Sc2LEBE2KfK7-68">
          <mxGeometry x="280" y="30" width="120" height="60" as="geometry" />
        </mxCell>
        <mxCell id="WXpK4O57Sc2LEBE2KfK7-72" value="INCIDENTE" style="rounded=0;whiteSpace=wrap;html=1;" vertex="1" parent="WXpK4O57Sc2LEBE2KfK7-68">
          <mxGeometry x="100" y="30" width="120" height="60" as="geometry" />
        </mxCell>
        <mxCell id="WXpK4O57Sc2LEBE2KfK7-73" value="EJE" style="rounded=0;whiteSpace=wrap;html=1;" vertex="1" parent="WXpK4O57Sc2LEBE2KfK7-68">
          <mxGeometry x="470" y="30" width="120" height="60" as="geometry" />
        </mxCell>
        <mxCell id="WXpK4O57Sc2LEBE2KfK7-74" value="2ª INSTANCIA" style="swimlane;startSize=20;horizontal=0;html=1;swimlaneFillColor=default;fillColor=#fff2cc;strokeColor=#d6b656;" vertex="1" parent="WXpK4O57Sc2LEBE2KfK7-67">
          <mxGeometry y="140" width="680" height="120" as="geometry" />
        </mxCell>
        <mxCell id="WXpK4O57Sc2LEBE2KfK7-75" style="edgeStyle=orthogonalEdgeStyle;rounded=0;orthogonalLoop=1;jettySize=auto;html=1;" edge="1" parent="WXpK4O57Sc2LEBE2KfK7-74" source="WXpK4O57Sc2LEBE2KfK7-77" target="WXpK4O57Sc2LEBE2KfK7-78">
          <mxGeometry relative="1" as="geometry" />
        </mxCell>
        <mxCell id="WXpK4O57Sc2LEBE2KfK7-76" style="edgeStyle=orthogonalEdgeStyle;rounded=0;orthogonalLoop=1;jettySize=auto;html=1;entryX=1;entryY=0.5;entryDx=0;entryDy=0;" edge="1" parent="WXpK4O57Sc2LEBE2KfK7-74" source="WXpK4O57Sc2LEBE2KfK7-77" target="WXpK4O57Sc2LEBE2KfK7-79">
          <mxGeometry relative="1" as="geometry" />
        </mxCell>
        <mxCell id="WXpK4O57Sc2LEBE2KfK7-77" value="RECURSO" style="rounded=0;whiteSpace=wrap;html=1;" vertex="1" parent="WXpK4O57Sc2LEBE2KfK7-74">
          <mxGeometry x="280" y="30" width="120" height="60" as="geometry" />
        </mxCell>
        <mxCell id="WXpK4O57Sc2LEBE2KfK7-78" value="EJE" style="rounded=0;whiteSpace=wrap;html=1;" vertex="1" parent="WXpK4O57Sc2LEBE2KfK7-74">
          <mxGeometry x="470" y="30" width="120" height="60" as="geometry" />
        </mxCell>
        <mxCell id="WXpK4O57Sc2LEBE2KfK7-79" value="INCIDENTE" style="rounded=0;whiteSpace=wrap;html=1;" vertex="1" parent="WXpK4O57Sc2LEBE2KfK7-74">
          <mxGeometry x="100" y="30" width="120" height="60" as="geometry" />
        </mxCell>
        <mxCell id="WXpK4O57Sc2LEBE2KfK7-80" value="3ª INSTANCIA" style="swimlane;startSize=20;horizontal=0;html=1;swimlaneFillColor=default;fillColor=#f8cecc;strokeColor=#b85450;" vertex="1" parent="WXpK4O57Sc2LEBE2KfK7-67">
          <mxGeometry y="260" width="680" height="120" as="geometry" />
        </mxCell>
        <mxCell id="WXpK4O57Sc2LEBE2KfK7-81" style="edgeStyle=orthogonalEdgeStyle;rounded=0;orthogonalLoop=1;jettySize=auto;html=1;" edge="1" parent="WXpK4O57Sc2LEBE2KfK7-80" source="WXpK4O57Sc2LEBE2KfK7-83" target="WXpK4O57Sc2LEBE2KfK7-84">
          <mxGeometry relative="1" as="geometry" />
        </mxCell>
        <mxCell id="WXpK4O57Sc2LEBE2KfK7-82" style="edgeStyle=orthogonalEdgeStyle;rounded=0;orthogonalLoop=1;jettySize=auto;html=1;entryX=1;entryY=0.5;entryDx=0;entryDy=0;" edge="1" parent="WXpK4O57Sc2LEBE2KfK7-80" source="WXpK4O57Sc2LEBE2KfK7-83" target="WXpK4O57Sc2LEBE2KfK7-85">
          <mxGeometry relative="1" as="geometry" />
        </mxCell>
        <mxCell id="WXpK4O57Sc2LEBE2KfK7-83" value="RECURSO" style="rounded=0;whiteSpace=wrap;html=1;" vertex="1" parent="WXpK4O57Sc2LEBE2KfK7-80">
          <mxGeometry x="280" y="30" width="120" height="60" as="geometry" />
        </mxCell>
        <mxCell id="WXpK4O57Sc2LEBE2KfK7-84" value="EJE" style="rounded=0;whiteSpace=wrap;html=1;" vertex="1" parent="WXpK4O57Sc2LEBE2KfK7-80">
          <mxGeometry x="470" y="30" width="120" height="60" as="geometry" />
        </mxCell>
        <mxCell id="WXpK4O57Sc2LEBE2KfK7-85" value="INCIDENTE" style="rounded=0;whiteSpace=wrap;html=1;" vertex="1" parent="WXpK4O57Sc2LEBE2KfK7-80">
          <mxGeometry x="100" y="30" width="120" height="60" as="geometry" />
        </mxCell>
        <mxCell id="WXpK4O57Sc2LEBE2KfK7-86" style="edgeStyle=orthogonalEdgeStyle;rounded=0;orthogonalLoop=1;jettySize=auto;html=1;entryX=0.5;entryY=0;entryDx=0;entryDy=0;" edge="1" parent="WXpK4O57Sc2LEBE2KfK7-67" source="WXpK4O57Sc2LEBE2KfK7-77" target="WXpK4O57Sc2LEBE2KfK7-83">
          <mxGeometry relative="1" as="geometry" />
        </mxCell>
        <mxCell id="WXpK4O57Sc2LEBE2KfK7-87" style="edgeStyle=orthogonalEdgeStyle;rounded=0;orthogonalLoop=1;jettySize=auto;html=1;" edge="1" parent="WXpK4O57Sc2LEBE2KfK7-67" source="WXpK4O57Sc2LEBE2KfK7-71" target="WXpK4O57Sc2LEBE2KfK7-77">
          <mxGeometry relative="1" as="geometry" />
        </mxCell>
        <mxCell id="WXpK4O57Sc2LEBE2KfK7-88" style="rounded=0;orthogonalLoop=1;jettySize=auto;html=1;strokeColor=default;shadow=0;entryX=0.5;entryY=0;entryDx=0;entryDy=0;exitX=0.5;exitY=1;exitDx=0;exitDy=0;" edge="1" parent="WXpK4O57Sc2LEBE2KfK7-67" source="WXpK4O57Sc2LEBE2KfK7-72" target="WXpK4O57Sc2LEBE2KfK7-77">
          <mxGeometry relative="1" as="geometry" />
        </mxCell>
        <mxCell id="WXpK4O57Sc2LEBE2KfK7-89" style="rounded=0;orthogonalLoop=1;jettySize=auto;html=1;entryX=0.5;entryY=0;entryDx=0;entryDy=0;exitX=0.5;exitY=1;exitDx=0;exitDy=0;" edge="1" parent="WXpK4O57Sc2LEBE2KfK7-67" source="WXpK4O57Sc2LEBE2KfK7-78" target="WXpK4O57Sc2LEBE2KfK7-83">
          <mxGeometry relative="1" as="geometry" />
        </mxCell>
        <mxCell id="WXpK4O57Sc2LEBE2KfK7-90" style="rounded=0;orthogonalLoop=1;jettySize=auto;html=1;entryX=0.5;entryY=0;entryDx=0;entryDy=0;exitX=0.5;exitY=1;exitDx=0;exitDy=0;" edge="1" parent="WXpK4O57Sc2LEBE2KfK7-67" source="WXpK4O57Sc2LEBE2KfK7-79" target="WXpK4O57Sc2LEBE2KfK7-83">
          <mxGeometry relative="1" as="geometry" />
        </mxCell>
        <mxCell id="WXpK4O57Sc2LEBE2KfK7-91" style="rounded=0;orthogonalLoop=1;jettySize=auto;html=1;exitX=0.5;exitY=1;exitDx=0;exitDy=0;" edge="1" parent="WXpK4O57Sc2LEBE2KfK7-67" source="WXpK4O57Sc2LEBE2KfK7-73">
          <mxGeometry relative="1" as="geometry">
            <mxPoint x="340" y="170" as="targetPoint" />
          </mxGeometry>
        </mxCell>
      </root>
    </mxGraphModel>
  </diagram>
</mxfile>
